<?xml version="1.0" encoding="UTF-8"?><svg id="a" xmlns="http://www.w3.org/2000/svg" viewBox="0 0 3000 3000"><path d="M2401.1,373.75c3.81-.23,5.03-.44,5.4-.65-1.78.24-3.83.36-5.4.65M2100.17,2597.48h0l8.67-4.3-8.67,4.3ZM387.86,1484.36l-2.86,22.88c1.32-.37,2.46-6.15,2.86-22.88M389.28,1164.12l-1.74.61c.54.37,1.11.36,1.74-.61M291.31,2374.72v-1.22c-.23-1.93-.52-4.2-.73-5.94l.73,7.15ZM2706.78,974.79c6.7-94.33,6.97-230.27,4.67-368.19-.32-17.24-.65-34.51-.96-51.74-.47-9.63-1.11-20.83-2.2-31.05-1.93-10.35-2.96-20.83-5.93-30.86-10.26-40.54-30.01-77.57-55.56-107.31-25.82-29.58-57.07-51.94-89.29-66.42-32.23-14.58-65.3-21.19-95.26-22.23l-15.85-.06-13.62.59c-9.02.33-18.08.67-27.19,1-18.2.57-36.57.93-55.08,1.14-37.02.4-74.6.11-112.56-.61-75.93-1.45-153.43-4.69-231.14-7.84-155.43-6.32-311.69-12.36-458.02-3.28-9.53-1.51-34.17,1.88-33.98,3.09l-267.84-1.5s-1298.63-4.08-312.02,83.97l-6.62,2.3c146.59,5.63,238.88,6.87,339.96-4.79,15.98,14.27,120.42,1.47,154.74,6.09l-3.25,1.17c89.43-10.99,184.18,9.13,270.38-.7-3.34,1.14-5.2,5.05-25.02,5.29,62.81-1.81,148.69-4.98,153.37,3.33,150-2.17,359.37,1.67,455.48-11.6l-6.59,2.3c54.76-8.96,70.9-1.33,132.12-5.87,3.34,1.08,7.68,1.64,6.98,2.1,7.46-1.11,15.78-1.96,24.71-2.61,4.46-.26,9.09-.55,13.84-.83,4.05.02,8.21.05,12.45.07,4.24-.07,8.54.14,12.83.91,4.3.64,8.7,1.1,13.07,1.9,8.58,2.28,17.45,4.13,25.67,7.71,8.54,2.73,16.2,7.34,23.94,11,7.15,4.76,14.57,8.59,20.57,13.69,3.08,2.41,6.26,4.53,9.05,6.87,2.74,2.43,5.37,4.77,7.87,6.99,5.3,4.15,9.14,8.82,13.07,12.23l-2.37,5.56c21.38,24.91,36.56,55.63,41.59,88.44l-1.13-9.24-2.06-9.08c-1.07-6.15-3.01-12.05-5.05-17.95,9.36,3.24,14.17,23.32,13.22,50.22-.51,12.25-2.53,31.51-3.16,50.73-.7,19.46-.4,40.39,2.05,62.07-1.91,81.12,31.34,164.55,23.95,248.81,7.06,40.17-11.47-35.39-6.04,24.66-7.86,1.97-4.93-28.04-11.21-12.58,3.73,58.98-8.03,96.72-2.72,169.48l-6.13,2.96c11.19,94.89-8.07,179.05,2.62,242.22,5.05,97.86-18.19,65.62-6.2,167.54l-8.29,39.62c-1.34,43.6,10.16,31.24,6.14,79.57-5.22-2.93-4.16,61.12-9.12,32.8-8.16,109.44,11.6,222.15-2.21,366.28,10.16,31.31,4.12,103.86,11.75,127.21-4.42,3.87-.72,145.39-10.33,63.93-.78-7.01-.64-19.38,1.09-18.53l-6.02-9.75c-11.37,82.2,6.26,149.36,4.5,230.7,1.99-24.11,1.46-56.19,5.6-34.75l-.41,37.78-.2,18.89-.1,9.44-.07,4.66-.27,3.67c-1.33-3.57-3.18-9.53-4.83-14.61l-.19,7.04-.09,3.51-.25,2.69-.91,10.58c-.6,7.04-2.36,13.89-3.62,20.75-2.26,6.63-3.47,13.55-6.52,19.88-1.36,3.2-2.49,6.49-3.94,9.64l-4.86,9.21,10.75-7.86c-9.93,18.87-21.38,28.31-31.64,38.26-10.95,9.62-21.31,19.45-38.4,35.47-7.66,7.69,1.55,4.39,8.74,2.15,3.61-1.03,6.16-2.48,5.95-1.3-.18,1.24-3.7,4.25-13.32,10.61-13.3,5.9-28.55,11.9-45.65,14.16-4.16,1.02-8.55,1.18-12.95,1.52-4.39.32-8.78.99-13.33.63-4.62-.08-9.28-.17-14-.25-5.94-.3-11.93-.61-17.96-.91-48.25-2.39-99.03-4.49-145.75-5.43,8.75,7.11-16.4,6.84-42.28,8.3l-2.99-6.18c-99.17,8.57-36.36-13.57-134.77-6.76l-17.32,8.59c-88.81,12.24-47.9-12.79-146.57,3.91,39.01-1.06,18.38,13.59-29.64,10.92l12.17-5.96c-26.58,1.26-35.46,3.74-53.14,2.51,15.82-3.21,8.36-8.66-30.7-7.64l26.18-7.46-73.87,10.96c-57.04-6.38-147.43,1.63-170.85-6.77,0,0-122.63-4.11-150.76,5.08,24.64-5.71-42.98-7.89-23.73-14.6-31.76,6.47-125.62,11.76-163.2,4.87l7.12-.77c-138.98-7.04-237.64,9.63-362.34,1.09,5.68,7.16-60.18,3.27-43.91,12.42-129.02,9.05-235.24-18.62-281.83,9.68-7.33.19-13.92.23-19.89.15-6-.07-11.54-.22-15.26-.85-8.15-1-14.6-2.02-20.06-4.22-11.07-3.46-18.55-7.98-29.87-12.27,3.59,1.05,7.43,1.2,11.11,1.69-42.46-10.75-66.02-30-83.57-48.36-2.2-2.36-4.36-4.7-6.51-7.01l-5.65-7.58c-4.04-4.87-7.13-10.4-10.51-16.01-3.75-5.4-5.85-11.94-9.21-18.29-1.46-3.28-2.46-6.87-3.8-10.44-1.3-3.61-2.77-7.29-3.54-11.36-1.32-3.9-2.74-7.34-4.22-10.52-1.29-3.27-2.49-6.27-3.63-9.18-1.31-2.95-2.58-5.8-3.85-8.69-1.07-2.96-1.98-6.03-2.97-9.34-.93-3.42-2-6.67-2.74-11.14-.66-4.69-1.22-9.82-1.63-15.61-.82-11.59-1.05-25.77-.26-44.15,5.19,23.78,4.23-6.26,4.23-33.76.82,17.57,2.73,23.01,6.21-13.09-1.6-5.08-2.6-12.93-3.42-20.29.42-.3.73-1.74,1.29-1-1.84-45.9-3.45-37.91-4.17-16.6-.79-1.08-1.81.72-3.25,7.3,6.71-47.62-.46-132.78,8.46-138.54-2.06-138.02-11.27-236.66-14.74-351.49,4.6-12.91,8.66,13.94,10.44,47.28l-1.67-81.48c6.6.7,3.79,46.81,5.11,71.9,10.68-97.01-10.65-199.99-.86-313.72l-5.21-23.59.86-6.79c-2.77.34-6.52-25.17-7.41-42.03,5.74-16.08,13.26,1.13,12.9-55.19,5.54-44.52-2.78-126.52-5.87-184.83-.97,31.43-4.17,21.29-6.19,7.76-.19-28.16,5.55-44.36,3.07-66.12l6.03-2.1c-5.67-3.91-6.42-75.06-9.32-84.57,5.75-16.03,4.95,43.7,9.28,50.73-.72-112.94-.36-56.46-1.08-169.35-5.85-60.25-7.35,10.94-14.14-17.88-1.52-53.18-6.93-105.07-2.26-166.13l-6.88,19.33c-5.35-99.93-4.56-159.71,2.42-227.02-.44-5.81-.87-11.55-1.3-17.2-.17-5.36-.33-10.64-.49-15.86-.43-5.28.27-10.38.54-15.49.43-5.08.43-10.22,1.48-15.08,2.41-19.94,8.61-37.99,15.14-54.86,14.55-33.09,34.99-58.92,55.89-78.02,21-19.14,42.32-31.86,61.14-40.96,9.57-4,18.34-8.03,26.53-10.69,8.22-2.46,15.59-5.32,22.26-6.9,13.41-3.25,23.65-6.03,29.4-8.08,6.18-2.22,9.51-4.32,10.46-6.31,1.91-3.97-5.69-7.47-19.06-10.52-8.07-1.11-18.08-2.31-29.37-2.55-11.23.47-23.95.54-36.99,3.25-13.25,1.82-26.63,6.01-40.18,10.24-13.15,5.16-26.42,10.59-38.31,17.59-3.02,1.67-6.02,3.33-8.98,4.96-2.8,1.89-5.57,3.74-8.29,5.57-5.39,3.75-10.8,7.18-15.55,10.99-9.28,7.87-18.14,14.69-24.43,21.66-13.41,13.16-20.36,22.81-20.36,22.81-15.3,18.07-26.71,38.31-36.61,58.56-8.87,20.72-16.02,41.77-19.64,63.04-.89,5.33-1.79,10.61-2.67,15.88-.73,5.28-.91,10.56-1.33,15.82-.3,5.21-.61,10.4-.9,15.56-.07,3.97-.13,7.92-.2,11.86-.14,15.73-.27,31.17-.41,46.38-.18,60.84,1.07,118.12,2.96,177.16,3.77,118.05,10.14,243.08,12.82,417.5-3.47,306.64-16.84,387.99-11.41,705.8-1.08,151.6,2,313.35,3.61,461.54,2.61,17.58,3.92,38.53,4.56,61.37.08,2.94.17,5.92.26,8.92.21,3.65.43,7.35.65,11.06.55,7.42.62,14.97,2.03,22.53,1.25,7.56,2.11,15.28,3.83,22.9,1.94,7.58,3.88,15.22,5.82,22.88,9.31,30.27,24.23,59.29,43.05,83.47,18.81,24.17,41.03,43.81,63.45,56.58,4.73,4.83,10.11,8.83,15.28,13.27l7.93,6.48,8.43,5.8c33.75,13.81,74.87,22.15,110.61,26.33l-2.34,1.61c14.77-.22,23.77-1.35,35.08-1.65,10.82-.42,21.48-.57,31.46-.66,19.98-.17,37.27-.06,47.85-1.19l-1.78,1.74,51.73-.77-8.89,2.48c74.26-4.77,150.78-5.08,218.2-2.91l-5.59-7.19c144.17,8.04,196.9-6.87,327.04,2.67l-1.78,1.74c164.48-18.98,260.02,12.92,429.57-5.08-21.14,2.24,9.06,3.7,7.35,5.45,78.08-2.06,161.48-3.14,162.7-17.26,56.91.19,46.33,4.42,53.75,9.87-.33-6.19,49.1-8.76,93.51-9.15l-20.44,2.39,127.31-2.1-25-11.69c67.49,3.37,17.15,14.25,81.79,11.42l-.82-9.68c93.36,1.91,148.12,16.58,238.52,23.72,11.74.1,23.51.2,35.3.3l8.85.05c2.85.03,5.84.04,9.72-.16l21.76-1.08c28.97-3.09,57.61-10.93,84.23-23.32,53.6-24.43,97.51-68.58,123.81-121.39,13.33-26.37,21.78-55.25,25.17-84.52,1.22-7.3,1.55-14.64,1.72-21.99.25-7.26.57-15.17.32-20.67l-.7-36.33c-.93-48.43-1.87-96.82-2.79-145.01-3.5-192.73-5.41-382.17,3.06-558.01l7.23-15.51c10.57-6.77-15.63-97.01-5.86-110.42l-4.82-40.91c1.89-11.49,3.91-35.73,6.28-15.36.42-37.82-1.32-38.75-4.51-65.99l6.57-40.59c5.09-149.25-7.59-276.12-5.01-433.16" fill="#cf121b"/><path d="M1785.65,1406.66c14.64,36.84,26.85,46.67,61.03,46.67,14.64,0,51.26-2.46,124.5-12.29,21.97-9.82,34.18-22.11,34.18-31.93,0-4.92-2.43-12.29-7.31-19.65,0-19.65-4.89-31.94-19.54-63.87-26.85-27.03-53.71-41.77-73.24-41.77-14.65,0-56.15,24.57-100.09,58.95-9.77,12.29-14.65,31.94-19.53,63.87M2000.48,1671.94s0-2.45,2.44-7.36c-14.65-14.74-19.53-17.2-43.95-27.02,0-2.46-2.43-2.46-4.88-7.38-12.2,0-14.65-2.46-24.41-7.37-12.22-9.82-19.54-12.28-29.3-12.28-7.33,0-12.2,0-21.97,2.45-24.41,17.19-36.62,29.47-70.8,71.23-21.96,31.94-21.96,39.3-21.96,83.52,7.32,2.46,14.64,4.91,19.53,4.91,7.33,0,19.53-4.91,31.73-14.73,7.33-2.46,14.65-2.46,14.65-2.46q100.09,24.56,109.86,24.56c19.53,0,46.38-17.2,46.38-27.03l-7.32-81.06ZM1465.82,819.58c14.65,7.36,26.85,9.82,36.62,9.82,4.88,0,14.65-2.46,26.85-7.36l58.59-12.29c39.07-27.02,46.39-31.93,80.57-46.67,12.2,0,21.96-4.91,78.12-31.94,4.89-4.91,19.53-9.82,36.62-17.2,26.85,31.94,29.3,36.85,29.3,66.33-7.33,61.41-9.77,71.23-14.65,127.73,51.26-17.2,58.59-22.11,83.01-61.41,46.38-54.04,51.26-63.86,78.12-110.53,19.53-12.29,39.07-17.2,51.27-17.2,0,0,4.88,0,9.76,2.46,12.22-4.91,14.65-4.91,24.42-7.38,31.73,17.2,63.47,27.03,83.01,27.03,2.43,0,7.32,0,17.08-2.45,19.53,2.45,31.74,4.91,36.62,4.91l83.01,14.74,29.29,2.45c14.65,4.91,24.42,7.37,26.85,7.37q119.63-9.82,131.84-9.82c39.06-4.92,43.95-9.83,63.48-56.5-4.88-31.94-7.33-39.3-29.3-49.12-17.08-12.29-21.97-14.74-48.83-27.03-29.29-14.74-34.18-17.2-56.14-31.93-19.54-17.2-21.97-17.2-48.83-22.11q-19.53-4.92-80.57-24.57c-43.94-14.74-73.24-19.65-102.54-19.65-12.2,0-39.06,4.91-68.36,12.29-9.76-2.45-17.08-2.45-17.08-2.45l-144.04,29.47-85.45,4.92c-4.88,0-14.64,4.91-29.29,14.73-17.09,27.02-24.42,31.94-43.95,31.94-9.76-12.29-14.65-17.2-19.53-24.56-12.2-4.92-21.97-7.37-26.85-7.37-14.65,0-136.72,34.39-183.1,54.04-17.09,4.91-19.54,7.37-39.07,19.65-21.96,4.91-36.61,14.74-68.36,41.76-12.2,24.56-19.53,46.67-19.53,61.41,0,7.36,2.44,14.74,4.88,29.47l56.15,27.03ZM1980.95,2546.41c14.65,2.47,17.09,2.47,31.73,7.38,29.3,2.45,34.18,4.91,65.92,7.36,7.33-2.46,12.2-2.46,14.65-2.46l85.44,9.83,100.1-2.47c9.76,0,24.41,2.47,48.82,4.92,43.95-7.38,51.27-9.83,83.01-14.74,12.2-2.45,24.42-4.91,26.85-4.91,43.95-2.46,73.25-7.38,83.01-9.83,0-2.46,7.33-4.91,14.65-9.82,19.53-2.46,31.73-7.38,61.03-29.48,2.45-12.28,2.45-14.73,9.77-22.11,2.43-17.2,2.43-29.47,2.43-34.39,0-22.11-4.88-51.58-12.2-88.43-43.94-7.36-51.26-9.82-78.12-29.47-9.77,9.82-17.09,14.73-21.97,14.73-2.44,0-7.32,0-12.2-2.46-53.72-7.37-104.98-12.28-139.16-12.28-9.77,0-34.18,2.46-58.6,7.37-12.2,2.46-19.53,2.46-21.96,4.91h-53.71c-131.84,17.2-190.44,22.11-231.94,22.11l-122.07-4.91-114.74-2.45h-43.95l-68.36,4.91-61.03-4.91-56.15,7.36-95.21-17.19c-4.88,0-24.41,7.37-46.38,24.56,7.32,61.41,21.97,71.23,97.66,78.61,39.06,0,65.91,2.46,78.13,4.91,12.2,2.46,31.73,9.82,58.59,19.65,63.48,22.11,87.89,27.02,146.49,31.93,36.61,7.38,43.94,7.38,78.12,14.74,26.85,4.91,36.62,9.83,78.13,27.02h73.24ZM413.58,2170.59c17.09,7.37,29.3,12.29,36.62,12.29,12.2,0,31.73-9.83,53.71-24.57,75.68-78.6,107.42-115.44,156.25-186.68,14.65-12.28,24.41-24.56,29.3-29.47,12.2-24.56,26.85-49.13,39.06-71.24,4.88-7.37,43.95-27.02,104.98-49.12,2.43-2.46,9.76-4.91,17.08-9.83,53.71-12.28,61.03-19.65,100.1-73.69,17.08,4.91,29.29,7.37,34.18,9.82,36.61,7.38,58.59,12.29,61.03,12.29,4.88,0,29.29,17.2,51.26,31.93-48.83,216.17-63.48,250.56-97.66,250.56-12.2,0-39.06-12.29-68.36-31.94-9.76-19.65-17.08-36.85-17.08-46.67,0-4.91,0-7.38,2.44-17.2-21.97-24.56-46.39-41.76-63.48-41.76-2.44,0-7.32,2.46-17.09,4.91-4.88,24.56-4.88,36.85-4.88,51.59v31.93c24.41,81.06,36.62,127.74,36.62,144.93,0,7.38-2.44,19.65-4.89,41.76-17.08,17.2-24.41,24.57-56.14,51.59l-21.97,17.2-58.6,41.76q-148.92,90.88-170.9,90.88c-14.65,0-31.73-9.82-51.26-31.93-7.33-19.65-17.09-29.48-24.42-29.48h-4.88c-31.73,41.76-51.26,110.54-51.26,176.86,0,71.24,36.61,113,97.65,113,17.09,0,39.07-2.47,73.25-12.29,24.41-4.91,41.5-14.74,80.56-39.3,41.5-27.02,51.26-31.94,102.54-66.32,17.08-31.94,19.53-36.85,51.26-63.86,24.42-31.94,29.3-36.85,48.83-63.86,48.83-63.87,56.15-76.15,78.13-127.74,14.65-2.46,21.97-2.46,29.3-2.46,12.2,0,31.73,2.46,53.71,7.37,41.5,27.03,48.83,34.39,117.19,83.53,36.61,24.56,58.59,36.84,75.68,36.84s34.18-14.73,61.03-51.58c-19.54-19.65-26.85-31.94-31.74-44.21-26.85-9.83-36.61-14.74-51.26-22.11-21.97-24.57-26.85-27.03-58.6-41.76-63.47-34.39-73.24-46.68-92.77-90.89-4.88-4.91-7.33-7.37-7.33-9.82s0-4.92,2.44-7.38c9.76-4.91,14.64-9.82,26.85-27.02,19.53-27.02,21.96-29.48,46.38-49.12,7.33-22.12,9.76-24.57,29.3-36.85,46.38-27.03,53.71-31.94,97.65-68.79,26.85-34.38,36.62-51.58,34.18-73.69,0-34.39-9.76-49.13-53.71-90.89-58.59-49.12-68.36-54.03-136.72-81.06-21.97-12.28-36.61-17.2-48.83-17.2-9.76,0-29.29,9.83-48.83,24.57-7.33,12.28-21.96,27.02-24.41,27.02l-85.45-12.29s-7.31,2.46-14.64,7.38c-24.42-17.2-26.85-19.65-41.5-44.21,29.29-81.06,65.91-113,119.62-113l75.68,4.91,80.56-2.46,87.9,19.65c2.44,0,9.76-2.46,21.96-9.82,29.3,4.91,56.15,7.37,68.36,7.37,29.3,0,53.71-2.46,97.66-7.37,4.88,24.56,7.32,41.76,7.32,51.58,0,12.29-7.32,49.13-21.97,103.17-7.33,29.48-9.76,58.95-9.76,73.7,2.43,54.03,2.43,88.43,2.43,98.26v31.93c2.44,9.83,4.89,17.2,4.89,19.65l-19.54,88.44c12.22,49.12,19.54,78.6,19.54,81.05v36.85c4.88,12.29,7.31,14.74,7.31,24.56,80.57,24.57,102.55,31.94,148.93,34.39,9.76-4.91,17.08-7.37,21.97-7.37l56.14-2.46c2.44,0,7.32-2.45,17.09-4.92,43.94-49.12,51.26-54.03,112.3-68.77,12.22-2.46,19.54-2.46,19.54-2.46l90.32,4.91c26.85,2.46,46.39-2.46,83.01-14.74,19.53,4.92,31.74,4.92,36.62,4.92l73.24,7.37c7.33,0,26.85,2.46,53.71,7.37,26.85,7.38,56.15,17.2,58.6,17.2,46.38,9.83,92.77,19.65,136.72,29.48,2.44,2.46,12.2,4.91,26.85,12.28,9.76,0,17.08,0,21.97,2.46,24.41,2.47,39.06,4.92,41.5,4.92,9.76,0,29.29-7.38,53.71-22.11,58.59-41.76,78.12-76.15,78.12-140.02,0-9.83,0-51.59-2.43-122.82v-125.27l-4.89-63.87,7.32-66.32-4.88-127.73c0-14.74,2.44-39.3,12.2-78.61-4.88-7.37-7.33-12.29-7.33-14.74-2.43-4.91-4.88-29.47-4.88-66.32l-2.44-61.41v-56.5c0-2.46-2.44-12.28-4.88-27.02-2.44-9.83-2.44-14.74-2.44-22.11,0-2.46,0-7.38,2.44-14.74l-19.53-31.93-43.95-56.5-109.86-95.8c-31.73-22.11-36.61-24.56-73.24-44.21-29.3-7.36-51.26-14.74-63.48-19.65l-51.26-17.2-153.81,22.11c-2.43,0-9.76-2.45-19.53-4.91-24.41,22.11-43.94,31.94-61.03,31.94-4.88,0-14.65-4.92-29.3-12.29-36.61,4.91-41.49,7.37-95.21,27.02l-85.44,29.48c-12.2,4.91-39.06,24.56-75.68,54.03-9.77,19.65-12.2,22.11-19.53,49.13,2.43,9.82,4.88,17.2,4.88,22.11s0,9.82-2.44,17.2c34.18,4.91,41.5,4.91,65.92,7.36,17.08,27.02,19.53,34.39,26.85,78.61,7.32,34.39,12.2,63.87,12.2,83.52,0,4.91,0,14.74-2.44,27.02,4.89,2.46,7.32,2.46,7.32,2.46,7.33,0,17.09-2.46,29.3-9.82,26.85-66.32,36.62-100.71,36.62-137.56v-22.11c12.2-34.39,17.08-41.76,34.18-61.41,17.08-7.36,26.85-12.28,29.29-17.2,12.22-19.65,26.85-39.3,41.5-58.95,2.44-2.45,9.77-7.36,26.85-12.28l51.27,2.45c24.41,29.47,29.3,34.39,51.26,68.78l17.09,17.2,26.85,132.65c-2.44,2.46,12.2,31.93,26.85,58.95,14.65-9.83,24.42-19.65,26.85-24.57,2.44-4.91,9.77-24.56,19.53-58.95,0-2.46,2.44-14.73,7.33-27.02,4.89-29.47,4.89-34.39,9.77-58.95,14.65-34.38,17.08-39.3,39.06-73.69,17.09-7.37,31.74-12.29,39.06-12.29,9.77,0,17.09,4.91,26.85,14.74,29.3,24.56,43.95,36.85,56.15,51.58,36.62,31.94,36.62,39.3,36.62,265.29l7.33,137.56c0,7.37-2.44,34.39-4.88,76.15-4.89,61.41-7.32,122.82-7.32,191.59,0,24.56,0,66.32,2.43,115.45-17.08,9.82-24.41,14.74-43.94,36.85-36.62,36.84-58.6,51.58-78.13,51.58-24.41,0-43.94-34.39-61.03-110.53-4.88-14.74-7.32-29.48-7.32-29.48l-19.53-85.97s-2.44-7.37-4.88-19.65c4.88-14.74,7.33-27.02,7.33-34.39,0-12.28-4.89-29.47-12.22-51.58,2.44-44.21,4.89-51.59,9.77-103.17-17.09-51.59-26.85-83.52-26.85-90.89,0-2.46,2.44-12.28,4.88-22.11-2.43-9.82-2.43-12.28-7.33-24.56-9.76-12.28-12.2-14.74-19.53-27.02-14.65,22.11-17.08,27.02-19.53,63.86,2.44,22.11,4.88,36.85,4.88,49.12,0,4.92-2.43,29.48-7.32,61.41-4.88,29.48-7.33,108.09-7.33,169.5v85.97c-9.76,44.21-80.56,140.02-117.18,157.21-17.09,9.82-21.97,9.82-41.5,14.73-36.62,17.2-53.72,22.11-75.68,22.11-17.1,0-34.18-2.46-68.36-12.28-21.97-41.76-29.3-63.86-29.3-88.44,0-7.37,0-17.19,2.44-31.93l7.31-22.11c4.89-17.2,7.32-29.48,7.32-29.48l-9.76-132.64c0-4.91,4.88-19.65,12.2-39.3,9.77-29.48,9.77-31.94,12.2-95.8,2.44-4.91,2.44-19.65,2.44-34.38,4.88-31.94,4.88-36.85,4.88-66.33-2.44-44.21-7.33-54.03-29.3-71.23,0-9.83-2.44-12.29-12.2-19.65,0,9.82-2.44,12.28-9.76,24.56-4.89,27.02-4.89,31.94-12.22,51.59-4.88,51.58-7.31,76.14-17.08,164.58-2.44,24.56-7.33,51.58-9.77,78.6-2.43,4.92-2.43,29.48-4.88,63.87l-2.44,78.6v19.65c0,12.29-4.88,29.48-12.2,49.13-12.2,24.56-14.65,29.47-26.85,51.58-12.2,4.92-21.97,7.38-26.85,7.38-12.2,0-34.18-9.83-53.71-29.48l-46.38-24.56c-19.53-17.2-29.3-27.02-34.18-39.3,2.44-7.37,2.44-12.28,2.44-14.74l-12.2-103.17c0-2.46,2.44-9.82,9.77-22.11-4.89-9.82-7.32-17.2-7.32-19.65l21.97-120.36c0-2.46-2.44-7.36-4.89-14.73,2.44-46.68,2.44-56.5,19.53-113,9.77-17.2,14.65-29.47,14.65-31.93l12.2-115.45c-2.44-2.45,4.89-31.94,12.21-58.95,7.33-27.02,17.08-54.04,17.08-56.5,2.44-19.65,7.32-39.3,12.2-61.41,0,0,2.45-7.37,4.89-19.65,9.76-14.73,14.65-27.02,14.65-34.38s-4.89-19.65-14.65-34.39c-12.2-17.2-21.97-24.56-31.74-24.56-4.88,0-12.2,4.91-21.96,14.73-34.18,100.71-73.25,275.12-75.68,338.98v14.74c-4.89,46.67-7.33,54.03-26.85,85.97-26.86-12.29-29.3-14.74-46.39-24.56l-95.21-22.11c-9.76-9.83-19.53-22.11-34.18-34.39-39.06-7.37-48.83-7.37-75.68-9.83-43.94-19.64-73.24-27.02-87.89-29.47l-90.33-2.46c-4.88,0-17.08-2.46-34.18-4.91-2.43-7.38-2.43-12.29-2.43-14.74,0-12.29,2.43-24.56,7.33-44.21,7.32-4.91,12.2-12.29,14.65-29.48l36.61-54.03c12.2-12.29,24.42-17.2,31.73-17.2,4.89,0,9.77,2.45,19.54,4.91,7.32-4.91,14.65-7.37,14.65-7.37l75.67,7.37s7.33-2.46,17.09-9.82c31.73-9.83,36.62-12.29,58.59-27.03,9.77-22.11,9.77-27.02,12.21-44.21-12.21-19.65-17.09-22.11-41.5-36.85-24.42-14.73-34.18-17.2-75.68-34.38-24.42-9.83-29.3-14.74-39.07-29.48l-14.64-2.45-53.72-2.45c-7.33,0-21.96-4.91-43.94-14.74-14.65-22.11-24.42-41.76-24.42-54.03,0-4.92,2.44-17.2,9.77-31.94,19.53-14.74,36.62-24.56,48.83-24.56,2.43,0,9.76,2.45,19.53,4.91h17.08c19.54,0,29.3-2.46,53.72-17.2,14.65,4.91,26.85,7.38,31.73,7.38l56.15-4.92,80.56,12.29c4.88,0,19.53-4.91,41.5-17.2l-19.53-85.97c-19.53-14.74-21.97-17.2-46.38-31.94-58.6-29.47-65.92-31.93-119.63-36.85-43.94-12.28-53.71-14.73-112.31-22.11,2.44-27.02,4.89-44.21,4.89-58.95,0-9.82-2.44-31.93-7.32-58.94,2.43-4.92,2.43-9.83,2.43-14.74,0-7.36-2.43-14.74-12.2-24.56,2.44-14.74,4.89-31.94,4.89-41.76,0-14.74-2.44-27.03-12.21-49.13-4.88-12.28-7.33-14.73-14.64-29.47-24.42-14.74-26.86-17.2-56.15-24.56-34.18,31.93-41.5,39.3-70.8,85.97-2.44,17.2-2.44,24.56-12.2,49.12l2.43,17.2c0,4.91,0,12.29-4.88,22.11,17.09,4.91,24.42,7.38,31.74,7.38v14.73q9.76,93.35,9.76,115.45c-9.76,12.28-19.53,19.65-48.83,29.47-65.91,22.11-75.68,27.03-134.27,71.24-19.53-4.91-34.18-7.38-46.38-7.38-34.18,0-68.36,19.65-124.51,76.15-7.33,19.65-12.2,34.39-12.2,44.21,0,7.38,4.88,22.11,14.64,39.3,19.54,14.74,34.18,22.11,46.39,22.11,9.76,0,29.29-12.28,48.83-31.93,24.41-7.38,53.71-17.2,53.71-17.2,14.65-2.45,36.61-7.36,80.56-17.2,4.88,0,14.65-2.45,24.41-4.91,26.85-12.29,51.27-19.65,63.48-19.65s24.42,2.46,46.38,9.82c0,14.74,0,17.2,9.77,31.94-2.44,39.3-4.88,44.21-41.5,76.15-21.97,17.2-26.85,22.11-51.27,49.12-26.85,9.83-31.73,12.29-51.26,27.02-26.85,4.92-43.95,12.29-85.45,31.94-17.08,7.36-24.41,12.29-53.71,27.02-17.08,29.48-24.41,49.13-24.41,66.33,0,7.36,0,19.65,2.44,31.93,14.64,4.91,26.85,7.38,31.73,7.38s9.76,0,17.08-2.47c21.97-7.37,24.42-9.82,48.83-19.65,39.07-24.56,46.38-27.02,97.66-27.02,58.59,41.76,58.59,44.21,80.56,179.32-14.65,9.82-19.53,9.82-43.94,19.65-26.86,4.91-36.62,9.82-70.8,31.93-19.53,7.38-31.73,14.74-34.18,14.74-36.62,2.46-73.24,7.38-109.86,12.29-61.03,9.82-100.09,29.47-163.57,85.97-4.88,27.02-9.77,49.12-9.77,61.41v24.56c46.39,2.46,53.71,2.46,102.54,4.91,53.72-7.37,63.48-9.82,102.54-29.47,24.42-9.82,46.39-14.74,58.6-14.74,4.88,0,12.2,0,24.41,2.46,9.77,27.03,14.65,44.22,14.65,58.95,0,12.29-9.76,34.39-24.41,61.41-4.89,17.2-4.89,19.65-17.09,36.85-70.8,66.32-129.39,117.91-170.9,152.3-9.76,7.37-31.73,19.65-63.48,39.3-41.5,73.69-53.71,105.62-53.71,140,0,12.29,7.33,44.22,19.53,88.44l2.45,4.91Z" fill="#cf121b"/></svg>