<svg xmlns="http://www.w3.org/2000/svg" xmlns:xlink="http://www.w3.org/1999/xlink" viewBox="93.73 128.22 1680.56 381.12">
<g>
<path transform="matrix(1,0,0,-1,274.7201,259.1128)" d="M0 0H106.1L118.814-154.898 47-179.892 38.188-34.071 35.607-110.977 0-157.626Z" fill="#fae6cf"/>
<path transform="matrix(1,0,0,-1,274.7201,259.1128)" d="M0 0H-106.1L-118.814-154.898-47-179.892-38.188-34.071-35.607-110.977 0-157.626Z" fill="#fae6cf"/>
<path transform="matrix(1,0,0,-1,0,656.693)" d="M315.69 422.92H363.308V408.94303H315.69Z" fill="#fae6cf"/>
<g>
<path transform="matrix(1,0,0,-1,380.8365,233.73859)" d="M0 0H6.413C9.982 0 12.882-2.9 12.882-6.469V-7.579C12.882-11.149 9.982-14.048 6.413-14.048H0Z" fill="#fae6cf"/>
<path transform="matrix(1,0,0,-1,0,656.693)" d="M365.654 428.198H378.262V399.38H365.654Z" fill="#fae6cf"/>
<path transform="matrix(1,0,0,-1,0,656.693)" d="M300.741 428.198H313.349V399.38H300.741Z" fill="#fae6cf"/>
<path transform="matrix(1,0,0,-1,0,656.693)" d="M274.72 422.92H298.42903V408.94303H274.72Z" fill="#fae6cf"/>
<path transform="matrix(1,0,0,-1,0,656.693)" d="M233.75 408.941H186.132V422.918H233.75Z" fill="#fae6cf"/>
<path transform="matrix(1,0,0,-1,168.6037,247.7868)" d="M0 0H-6.413C-9.982 0-12.882 2.9-12.882 6.469V7.579C-12.882 11.149-9.982 14.048-6.413 14.048H0Z" fill="#fae6cf"/>
<path transform="matrix(1,0,0,-1,0,656.693)" d="M183.786 399.38H171.178V428.198H183.786Z" fill="#fae6cf"/>
<path transform="matrix(1,0,0,-1,0,656.693)" d="M248.699 399.38H236.091V428.198H248.699Z" fill="#fae6cf"/>
<path transform="matrix(1,0,0,-1,0,656.693)" d="M251.011 422.92H274.72V408.94303H251.011Z" fill="#fae6cf"/>
</g>
<g>
<path transform="matrix(1,0,0,-1,274.7201,171.5646)" d="M0 0C-86.45 0-156.782-70.332-156.782-156.782-156.782-243.232-86.45-313.564 0-313.564 86.45-313.564 156.782-243.232 156.782-156.782 156.782-70.332 86.448 0 0 0M0-318.54C-89.194-318.54-161.758-245.976-161.758-156.782-161.758-67.588-89.194 4.976 0 4.976 89.194 4.976 161.758-67.588 161.758-156.782 161.758-245.976 89.194-318.54 0-318.54" fill="#fae6cf"/>
<path transform="matrix(1,0,0,-1,274.7201,155.65378)" d="M0 0C-95.223 0-172.693-77.469-172.693-172.693-172.693-267.916-95.223-345.386 0-345.386 95.223-345.386 172.693-267.916 172.693-172.693 172.693-77.469 95.223 0 0 0M0-353.679C-99.797-353.679-180.987-272.489-180.987-172.693-180.987-72.896-99.797 8.294 0 8.294 99.797 8.294 180.987-72.896 180.987-172.693 180.987-272.489 99.797-353.679 0-353.679Z" fill="#fae6cf"/>
<path transform="matrix(1,0,0,-1,214.6113,343.16099)" d="M0 0C0 1.262-.995 2.256-2.256 2.256-3.517 2.256-4.512 1.261-4.512 0-4.512-1.261-3.517-2.256-2.256-2.256-.995-2.256 0-1.259 0 0M-6.006 0C-6.006 2.092-4.348 3.75-2.258 3.75-.168 3.75 1.493 2.092 1.493 0 1.493-2.092-.166-3.749-2.258-3.749-4.349-3.749-6.006-2.09-6.006 0M-14.435-19.709C-16.195-19.709-17.82-20.473-17.82-21.766-17.82-22.861-16.394-23.292-15.033-23.292-11.815-23.292-10.92-22.264-10.92-20.141-12.114-19.809-13.275-19.71-14.436-19.71ZM-19.678-6.005-19.346-5.739C-17.52-6.869-16.029-7.166-14.899-7.166-13.506-7.166-12.31-7.033-11.215-6.834V-4.081C-11.215-2.321-11.547-2.289-12.177-2.024-12.94-1.692-13.836-1.526-14.599-1.36L-14.698-.929C-13.769-.199-12.376 .73-11.414 .73-8.76 .73-6.504-.564-6.504-1.592-6.504-2.455-6.869-2.787-7.068-3.848-7.168-4.28-7.267-4.943-7.367-5.772-5.476-5.109-4.678-4.643-4.547-4.643-3.087-4.643-1.559-5.306-1.559-6.536-1.559-7.829-2.19-8.062-3.948-8.791-4.578-9.057-5.972-9.455-7.665-9.787L-7.698-11.812C-7.698-14.236-7.532-16.06-7.367-17.586-4.58-18.314-2.82-19.643-1.692-20.771-.929-21.534-.564-22.297-.564-23.127-.564-24.487-1.294-25.25-2.357-25.25-3.253-25.25-3.817-24.654-5.177-23.425-5.774-22.861-6.371-22.397-6.968-21.999-7.068-25.283-9.291-26.777-13.804-26.777-16.823-26.777-19.61-25.117-19.61-22.032-19.61-18.515-16.06-17.021-12.111-17.021L-11.049-17.055C-11.149-15.43-11.248-13.504-11.248-11.746V-10.319C-12.21-10.42-13.139-10.487-14.07-10.487-16.259-10.487-18.117-10.288-19.676-6.006ZM-27.509-25.882C-28.902-24.055-29.632-21.368-29.632-17.321-29.632-14.765-28.737-10.485-28.239-8.495-27.808-6.869-27.509-5.441-27.509-3.749-27.509-2.057-28.438-.464-29.135 .365L-28.902 .697C-27.609 .463-26.746 .131-25.817-.433-24.623-1.13-22.632-3.155-22.632-5.177-22.632-6.205-23.196-6.871-23.926-8.196-25.353-10.553-26.714-13.871-26.714-17.124-26.714-17.785-26.648-18.583-26.515-18.948-26.283-19.479-25.918-19.514-25.587-18.983-24.757-17.755-22.997-14.536-22.068-12.877L-21.372-13.176C-22.002-15.002-22.931-17.755-23.229-18.948-23.495-20.41-23.594-21.106-23.594-21.604-23.594-22.898-22.864-24.059-22.864-25.187-22.864-26.68-23.594-27.509-24.921-27.509-25.85-27.509-26.781-26.879-27.511-25.885Z" fill="#050202"/>
<path transform="matrix(1,0,0,-1,281.6255,354.8736)" d="M0 0C.133 .168 .1 .332-.168 .433-.798 .665-2.025 .798-2.987 .798-3.817 .798-5.111 .665-6.637 .433L-6.804 .765C-5.011 2.19-2.092 3.419 .861 3.419 3.019 3.419 4.379 2.855 5.043 2.423 6.172 1.694 6.57 .831 6.57 .035 6.57-1.028 5.907-1.725 4.115-1.725 3.551-1.725 2.72-1.758 1.859-1.825 .166-1.957-1.194-2.191-2.389-2.555L-2.622-2.223C-1.725-1.626-.3-.365 0 0ZM-8.627-8.096C-8.627-7.134-8.362-5.841-8.13-5.043H-7.732C-7.632-5.807-7.4-7.002-6.736-7.931-5.376-9.855-3.483-10.352-.896-10.352 1.791-10.352 3.185-9.722 3.682-9.722 5.277-9.722 7.168-10.419 7.168-12.21 7.168-13.172 6.373-13.869 4.845-14.236 3.784-14.499 2.324-14.733-.065-14.733-5.773-14.733-8.626-12.21-8.626-8.096ZM-21.204 7.4-20.872 7.634C-19.014 6.371-18.086 6.141-16.792 6.108-15.465 6.073-14.038 6.24-12.844 6.473-12.545 7.965-12.346 9.327-12.313 10.055-12.28 10.951-12.346 11.185-12.877 11.714-13.308 12.147-13.905 12.51-14.768 12.844V13.209C-13.773 13.706-12.744 13.972-11.716 13.972-9.261 13.972-7.103 12.811-7.103 11.815-7.103 10.82-7.833 10.289-8.728 7.501-7.468 7.899-6.506 8.365-5.676 8.828-4.913 9.261-4.349 9.724-4.018 9.724-3.055 9.724-1.065 9.195-1.065 7.567-1.065 6.473-1.961 5.807-4.98 4.779-6.041 4.414-7.932 3.883-9.856 3.452-10.221 2.158-10.619 .73-11.051-.63-12.112-4.014-14.169-10.253-15.398-12.708-16.062-14.036-16.626-14.932-18.119-14.932-19.379-14.932-20.342-13.572-20.342-11.913-20.342-10.22-19.247-9.657-18.119-7.732-17.124-6.038-15.631-3.185-14.27 .798-14.071 1.362-13.872 2.059-13.673 2.788-14.469 2.689-15.233 2.622-15.83 2.622-18.651 2.622-20.144 3.186-21.206 7.4Z" fill="#050202"/>
</g>
<g>
<path transform="matrix(1,0,0,-1,351.1827,354.4755)" d="M0 0 .398 .265C2.256-1.46 4.348-2.258 6.703-2.258 9.292-2.258 11.217-.796 11.217 1.825 11.217 3.915 9.326 5.376 7.269 5.376 4.679 5.376 .732 3.319-2.82 .995-.829-2.258 1.028-6.273 1.859-8.297 2.556-9.991 3.253-12.114 3.253-13.507 3.253-15.166 2.291-16.261 .831-16.261-.396-16.261-1.062-15.599-1.491-14.138-1.924-12.777-2.155-11.052-2.586-9.127-3.085-7.202-3.814-4.183-5.671-1.03-6.668-1.758-7.564-2.49-8.327-3.122-9.289-4.018-9.886-4.88-11.049-4.88-12.343-4.88-14.201-3.885-14.866-2.923-15.43-2.092-15.629-1.262-15.329 .629L-14.897 .796C-14.3 .099-13.703-.431-12.938-.431-12.076-.431-10.782 .299-9.588 .863L-7.562 1.891-8.624 3.384C-9.488 4.479-10.384 5.175-10.384 6.403-10.384 9.19-7.662 9.09-6.337 9.19-4.777 9.291-3.119 9.49-2.453 9.654-1.991 9.755-1.823 10.021-1.991 10.45-2.254 11.114-3.45 12.076-5.01 12.64L-4.943 13.005C-1.06 13.602 1.329 12.474 2.423 11.28 3.218 10.415 3.518 9.586 3.518 8.624 3.518 7.529 2.755 6.93 1.758 6.93 1.062 6.93-.033 7.297-.597 7.43-1.594 7.662-3.749 7.894-5.642 7.894-6.371 7.894-7.002 7.793-7.002 7.03-7.002 6.366-5.642 4.938-4.412 3.381-.032 5.371 4.348 6.866 7.466 6.866 12.245 6.866 15.065 3.945 15.065 .428 15.065-2.924 12.311-5.778 7.7-5.778 4.348-5.778 1.793-3.555 0-.005Z" fill="#050202"/>
</g>
<g>
<path transform="matrix(1,0,0,-1,888.6334,236.4383)" d="M0 0H48.69L40.249-10.629 40.562-158.182H74.636L87.887-149.273 81.514-183.816H0L8.519-172.25V-10.785Z" fill="#fae6cf"/>
<path transform="matrix(1,0,0,-1,508.1052,236.4383)" d="M0 0H46.54L43.61-10.473 66.118-89.798 91.439-10.473 85.109 0H132.235L125.202-10.473V-173.266L132.235-183.816H84.406L91.439-173.266V-89.798L71.041-154.509H61.897L40.093-89.798V-173.266L49.237-183.816H0L7.034-173.266V-10.473Z" fill="#fae6cf"/>
<path transform="matrix(1,0,0,-1,657.6905,236.4383)" d="M0 0H77.606L82.999-33.059 71.276-24.618H41.499V-77.372H60.022L69.166-68.931V-109.024L60.022-101.287 41.499-101.99V-157.557H70.572L82.999-149.116 76.199-183.816H0L8.675-173.266V-10.473Z" fill="#fae6cf"/>
<path transform="matrix(1,0,0,-1,753.819,236.4383)" d="M0 0H45.485L39.858-10.473 73.62-98.473V-10.473L65.18 0H113.713L105.272-10.473V-173.266L113.713-183.816H68.697L75.027-173.266 39.155-84.406V-173.266L47.595-183.816H0L8.206-173.266V-10.473Z" fill="#fae6cf"/>
<path transform="matrix(1,0,0,-1,1033.9203,358.9826)" d="M0 0H22.821L11.567 75.34ZM-17.975 122.544H41.812L36.888 112.072 61.507-50.721 69.244-61.272H25.634L31.261-50.721 25.634-26.572H-5.314L-8.128-50.721-1.797-61.272H-46.11L-39.077-50.721-11.645 112.072Z" fill="#fae6cf"/>
<path transform="matrix(1,0,0,-1,1156.4646,396.1836)" d="M0 0H17.506L24.384 5.236V50.956L18.757 57.521H0ZM0 81.279H17.506L24.384 88.469V129.734L19.069 135.674H0ZM-39.233 159.745H36.263L56.427 140.988V85.656L39.702 71.276 56.427 55.958V-5.314L35.325-24.071H-39.233L-31.574-13.521V149.273Z" fill="#fae6cf"/>
<path transform="matrix(1,0,0,-1,1270.881,392.4322)" d="M0 0 7.503-6.877H21.258L28.76 0V128.484L21.258 137.237H7.503L0 128.484ZM-11.567 155.994H41.265L61.116 137.237V-9.378L41.265-27.823H-11.567L-32.668-9.378V137.237Z" fill="#fae6cf"/>
<path transform="matrix(1,0,0,-1,1541.6941,290.4537)" d="M0 0H-14.8V-31.399C-14.8-33.8-14.399-34.6-11.6-34.6H-6.399-1 0ZM-43.999 5.6H-32.999V34.2H-43.999ZM-74.198-106.398H0V-78.199008H-74.198ZM-74.198 0V-59.199C-63.198-44.399-62.599-25.2-62.599-5.4V0ZM0-72.599V-52.6L-8.6-52.999H-17.6C-30.999-52.999-32.999-48.8-32.999-37V0H-43.999V-5.2C-43.999-26.6-46.199-49.199-74.198-63.999V-72.599ZM-94.798 14.6-71.799 5.6H-62.599V34.199H-100.598L-102.198 39.999H-1.399L10.601 56.398C10.601 56.398 24.4 45.199 32.6 37.399 32 35.199 30 34.199 27.2 34.199H-14.8V5.6H-1L9.801 18.199 30 2C28.6 .2 26.2-1.2 21.601-2V-123.599C21.601-124.998 14.2-129.599 3.601-129.599H0V-111.998H-74.198V-124.998C-74.198-126.599-80.599-130.798-91.198-130.798H-94.798V5.6ZM-124.798 22.8C-127.598 33.399-136.197 45.399-143.397 52.799L-141.798 53.999C-87.398 49.599-103.798 9.6-124.798 22.8M-138.997-66.199C-134.997-58.6-134.997-58.6-99.998 23.999L-96.798 23.199C-103.998-1.8-117.198-47.8-119.598-58.999-121.197-65.6-122.397-72.999-122.397-77.999-121.998-88.999-113.998-96.199-114.397-114.198-114.798-124.198-121.397-130.798-130.998-130.798-135.598-130.798-140.197-127.998-141.598-120.398-137.997-99.398-138.997-80.599-143.598-77.399-146.197-75.399-149.598-74.599-153.797-74.199V-70.399H-144.997C-141.997-70.399-141.197-70.399-138.997-66.199M-143.197-20.6C-144.598-10.2-151.598 1.2-158.197 8.199L-156.598 9.6C-105.198 2.8-123.798-34.8-143.197-20.6" fill="#fae6cf"/>
<path transform="matrix(1,0,0,-1,0,656.693)" d="M1684.296 359.639H1728.6951V380.24003H1684.296ZM1728.695 405.439H1684.2959V385.839H1728.695ZM1662.095 420.439 1685.296 411.238H1726.695L1737.495 422.638 1759.694 405.839C1758.295 404.439 1755.694 402.639 1751.894 401.839V353.039C1751.694 351.239 1740.894 345.839 1732.695 345.839H1728.695V354.039H1684.296V349.44C1684.296 347.44 1674.496 342.44 1665.095 342.44H1662.095V411.238ZM1739.094 336.239 1751.495 351.839C1751.495 351.839 1765.694 341.239 1774.294 333.64 1773.694 331.44 1771.694 330.44 1768.694 330.44H1694.296C1691.495 325.04 1688.095 319.84 1684.296 314.84H1741.295L1752.894 326.04 1773.494 308.84C1771.894 307.24 1769.494 306.04 1765.294 305.441 1762.295 267.841 1756.694 249.241 1746.295 241.841 1739.894 237.241 1732.295 235.241 1722.495 235.241 1722.495 241.641 1721.695 247.041 1719.094 250.041 1716.295 253.241 1711.295 255.641 1704.295 257.24L1704.495 259.841C1710.695 259.441 1720.895 258.641 1724.895 258.641 1728.094 258.641 1729.695 259.041 1731.495 260.441 1736.295 264.441 1740.495 280.641 1743.094 309.04H1737.295C1725.695 276.04 1702.295 251.641 1664.696 235.241L1663.095 237.841C1689.095 255.241 1705.695 280.24 1714.094 309.04H1707.895C1693.895 283.04 1669.296 262.841 1638.096 249.041L1635.896 251.641C1658.095 266.441 1675.695 287.04 1686.496 309.04H1679.695C1666.296 293.84 1648.096 281.641 1626.297 272.641L1624.496 275.24C1644.296 289.24 1659.095 309.44 1667.895 330.44H1642.296L1640.696 336.239ZM1606.697 304.04V362.039H1587.497L1585.897 367.639H1606.697V420.038L1636.296 417.439C1635.896 414.639 1634.496 412.639 1629.096 411.838V369.44L1638.096 384.639C1638.096 384.639 1649.496 372.839 1655.696 365.239 1655.095 363.039 1653.095 362.039 1650.296 362.039H1629.096V312.24L1654.095 321.64 1654.696 319.84C1643.496 309.64 1625.696 294.441 1600.297 276.04 1599.697 273.441 1598.096 270.841 1595.697 269.841L1583.097 296.04C1588.096 297.64 1596.497 300.441 1606.697 304.04" fill="#fae6cf"/>
<path transform="matrix(1,0,0,-1,810.8025,130.56787)" d="M0 0C-.1-4.399-.15-8.65-.5-12.7H10.75L14.401-8.1C14.401-8.1 18.551-11.1 21.001-13.35 20.851-13.85 20.301-14.1 19.651-14.1H-.1C1.65-23.4 7.5-32.551 21.451-38.201L21.351-38.802C18.301-39.352 16.451-41.152 15.901-44.602 4.35-37.552 .6-25.451-.8-15.45-2.35-27.352-7.351-37.502-25.502-44.553L-25.952-43.802C-12.001-35.401-8.101-25.501-7-14.1H-25.102L-25.452-12.7H-6.9C-6.551-8-6.601-3-6.601 2.201L1.8 1.4C1.65 .65 1.2 .15 0 0" fill="#fae6cf"/>
<path transform="matrix(1,0,0,-1,875.2527,145.16748)" d="M0 0C1.051-5.852 3-10.301 5.7-13.801 7.751-9.551 9.051-4.9 9.851 0ZM-25.701 15.7-19.601 13.35H-16.301L-13.4 16.25-8.101 11.25V14.95L-1.6 12.6H10.001L13.151 16.801C13.151 16.801 16.751 13.95 18.951 12 18.802 11.45 18.201 11.2 17.501 11.2H-2.55V1.449H9.451L12.551 4.6 17.901-.15C17.552-.701 17.102-.851 15.951-1 14.651-7.001 12.651-12.651 9.15-17.451 12.201-20.152 15.901-22.102 20.001-23.652L19.901-24.152C17.201-24.553 15.051-26.402 13.951-29.353 10.551-27.152 7.751-24.652 5.551-21.502 2.101-24.803-2.45-27.553-8.4-29.502L-8.801-28.902C-3.5-26.053 .5-22.252 3.4-17.802 1.25-13.301-.149-7.65-.899 0H-2.55V-3.551C-2.55-13.201-3.6-23.502-16.201-29.953L-16.701-29.553C-9.15-22.452-8.101-13.451-8.101-3.601V11C-8.5 10.6-9.15 10.5-10.2 10.45-11.9 7.55-14.9 2.549-17.351-.351-12.351-3.551-10.2-8.201-10.2-12.051-10.2-16.752-12.001-19.552-17.351-19.652-17.351-18.152-17.551-16.052-18.001-15.352-18.351-14.801-19.101-14.352-20.101-14.151V-13.451H-17.501C-17.001-13.502-16.701-13.451-16.4-13.201-15.801-12.801-15.451-12.051-15.451-10.502-15.451-7.251-16.301-3.65-18.651-.451-17.751 2.6-16.551 8.199-15.951 11.95H-20.251V-28.202C-20.251-28.603-21.951-30.002-24.751-30.002H-25.701V13.35Z" fill="#fae6cf"/>
<path transform="matrix(1,0,0,-1,0,656.693)" d="M946.303 496.424H929.052V486.823H946.303ZM922.152 515.575H946.90298V523.72506H922.152ZM916.202 527.926 923.052 525.125H946.403L949.103 528.126 954.904 523.776C954.604 523.375 953.904 522.926 952.904 522.726V513.026C952.803 512.675 949.803 511.675 947.954 511.675H946.903V514.175H922.152V513.074C922.152 511.125 922.102 509.025 922.002 506.875H934.802V513.526L942.254 512.875C942.153 512.225 941.803 511.775 940.603 511.574V506.875H948.403L951.604 511.175C951.604 511.175 955.204 508.225 957.304 506.275 957.154 505.725 956.604 505.475 955.904 505.475H940.603V497.874H945.803L948.504 500.774 954.154 496.524C953.803 496.124 953.104 495.674 952.104 495.474V483.524C952.053 483.173 949.254 481.973 947.303 481.973H946.303V485.373H929.052V483.473C929.052 482.923 926.552 481.673 924.202 481.673H923.452V500.174L929.402 497.874H934.802V505.475H922.252L921.952 506.475C921.402 497.975 919.052 488.373 910.302 481.723L909.802 482.123C915.651 491.324 916.202 502.875 916.202 513.026V525.125Z" fill="#fae6cf"/>
<path transform="matrix(1,0,0,-1,1011.6541,142.31787)" d="M0 0H-3.7V-7.851C-3.7-8.451-3.601-8.65-2.9-8.65H-1.601-.25 0ZM-11.001 1.4H-8.251V8.55H-11.001ZM-18.552-26.602H0V-19.550999H-18.552ZM-18.552 0V-14.801C-15.802-11.101-15.651-6.301-15.651-1.35V0ZM0-18.151V-13.15L-2.15-13.251H-4.4C-7.751-13.251-8.251-12.201-8.251-9.25V0H-11.001V-1.301C-11.001-6.65-11.551-12.301-18.552-16.001V-18.151ZM-23.702 3.65-17.951 1.4H-15.651V8.551H-25.152L-25.552 10H-.351L2.649 14.102C2.649 14.102 6.1 11.301 8.15 9.351 8 8.801 7.5 8.551 6.8 8.551H-3.7V1.4H-.25L2.45 4.551 7.5 .5C7.15 .05 6.55-.301 5.399-.5V-30.902C5.399-31.252 3.55-32.402 .899-32.402H0V-28.002H-18.552V-31.252C-18.552-31.652-20.151-32.702-22.802-32.702H-23.702V1.4ZM-31.202 5.7C-31.902 8.351-34.053 11.351-35.853 13.201L-35.452 13.501C-21.852 12.4-25.952 2.4-31.202 5.7M-34.753-16.551C-33.753-14.65-33.753-14.65-25.002 6L-24.202 5.801C-26.002-.45-29.302-11.951-29.902-14.751-30.303-16.4-30.603-18.251-30.603-19.502-30.502-22.252-28.502-24.051-28.603-28.552-28.702-31.052-30.353-32.702-32.753-32.702-33.902-32.702-35.053-32.002-35.402-30.102-34.503-24.852-34.753-20.151-35.902-19.352-36.553-18.852-37.402-18.651-38.453-18.551V-17.602H-36.253C-35.503-17.602-35.303-17.602-34.753-16.551M-35.803-5.15C-36.152-2.551-37.902 .3-39.553 2.051L-39.153 2.4C-26.302 .7-30.952-8.701-35.803-5.15" fill="#fae6cf"/>
<path transform="matrix(1,0,0,-1,1072.2537,145.5181)" d="M0 0 2.5 3.05C1.8 2.95 1.1 2.851 .55 2.851H-.5V4.351H-25.352V.95 0H-16.301ZM-25.352 5.751H-.5V12.651H-25.352ZM-16.701-1.45H-25.352C-25.401-3.4-25.502-5.501-25.702-7.601H-18.552C-17.901-5.7-17.201-3.4-16.701-1.45M-13.051-26.151V-19.201H-25.202L-25.602-17.751H-13.051V-11.851L-5.65-12.501C-5.751-13.151-6.101-13.601-7.301-13.801V-17.751H-1.5L1.4-14.151C1.4-14.151 4.7-16.601 6.75-18.401 6.601-18.951 6.101-19.201 5.4-19.201H-7.301V-26.151H1.1L4.1-22.102C4.1-22.102 7.5-24.852 9.5-26.751 9.351-27.302 8.851-27.552 8.15-27.552H-28.852L-29.252-26.151ZM2.45-12.551C1.8-11.2 .75-9.801-.5-8.501-5.251-9.65-11.851-10.95-21.251-12.7-21.552-13.351-22.102-13.651-22.651-13.751L-25.702-7.65C-26.552-15.351-29.102-23.552-36.853-29.452L-37.353-29.103C-31.853-20.201-31.353-9.051-31.353 .95V16.451L-24.452 14.051H-1L1.7 17.001 7.5 12.7C7.2 12.301 6.5 11.851 5.5 11.651V4.101C5.45 3.9 4.55 3.55 3.45 3.3 4.45 2.55 6.9 .75 8.551-.649 8.4-1.2 7.851-1.45 7.15-1.45H-9.551C-11.4-3.501-13.601-5.751-15.651-7.601L-1.65-7.3C-3.101-5.9-4.7-4.65-6.15-3.7L-5.751-3.25C10.601-3.7 8.301-15.101 2.45-12.551" fill="#fae6cf"/>
<path transform="matrix(1,0,0,-1,685.0042,488.9614)" d="M0 0C6.097 0 8.833 3.696 8.833 9.025 8.833 14.737 6.097 17.714 .624 17.714H-1.968C-2.016 12.817-2.016 7.825-2.016 2.833V0ZM-13.489 19.49H.72C10.993 19.49 15.265 15.602 15.265 8.978 15.265 3.024 11.089-1.728 .144-1.728H-2.016L-1.968-14.017 3.312-14.497V-16.081H-13.489V-14.497L-8.929-14.064C-8.881-9.313-8.881-4.416-8.881 .528V2.833C-8.881 7.729-8.881 12.577-8.929 17.474L-13.489 17.906Z" fill="#ffffff"/>
<path transform="matrix(1,0,0,-1,760.1711,491.8413)" d="M0 0H10.609L5.232 16.657ZM9.265-11.617 14.162-11.089 11.089-1.632H-.528L-3.504-11.089 1.008-11.617V-13.201H-9.889V-11.617L-5.808-11.089 5.376 22.562H9.601L21.074-11.233 24.818-11.617V-13.201H9.265Z" fill="#ffffff"/>
<path transform="matrix(1,0,0,-1,834.8098,469.4712)" d="M0 0H30.675L30.963-9.985H28.419L26.354-1.824H18.866C18.77-6.721 18.77-11.665 18.77-16.657V-18.914C18.77-23.811 18.77-28.707 18.866-33.555L23.954-33.987V-35.571H6.769V-33.987L11.857-33.555C11.953-28.755 11.953-23.858 11.953-18.962V-16.657C11.953-11.713 11.953-6.769 11.857-1.824H4.369L2.305-9.985H-.239Z" fill="#ffffff"/>
<path transform="matrix(1,0,0,-1,916.1692,469.4712)" d="M0 0H30.674L30.962-9.985H28.418L26.354-1.824H18.866C18.769-6.721 18.769-11.665 18.769-16.657V-18.914C18.769-23.811 18.769-28.707 18.866-33.555L23.954-33.987V-35.571H6.769V-33.987L11.857-33.555C11.953-28.755 11.953-23.858 11.953-18.962V-16.657C11.953-11.713 11.953-6.769 11.857-1.824H4.369L2.305-9.985H-.239Z" fill="#ffffff"/>
<path transform="matrix(1,0,0,-1,1006.697,491.8413)" d="M0 0H10.609L5.232 16.657ZM9.265-11.617 14.161-11.089 11.089-1.632H-.527L-3.504-11.089 1.008-11.617V-13.201H-9.889V-11.617L-5.809-11.089 5.377 22.562H9.601L21.074-11.233 24.818-11.617V-13.201H9.265Z" fill="#ffffff"/>
<path transform="matrix(1,0,0,-1,1102.074,469.4712)" d="M0 0H11.329V-1.584L7.248-2.16-1.729-20.45C-1.729-26.931-1.729-29.907-1.681-33.555L3.456-33.987V-35.571H-13.729V-33.987L-8.641-33.555C-8.545-30.146-8.545-27.362-8.545-21.603L-18.29-1.872-21.17-1.584V0H-5.616V-1.584L-10.513-2.064-2.784-18.578 4.849-2.16 0-1.584Z" fill="#ffffff"/>
<path transform="matrix(1,0,0,-1,1172.1521,491.8413)" d="M0 0H10.609L5.232 16.657ZM9.265-11.617 14.161-11.089 11.089-1.632H-.527L-3.504-11.089 1.008-11.617V-13.201H-9.889V-11.617L-5.809-11.089 5.377 22.562H9.601L21.074-11.233 24.818-11.617V-13.201H9.265Z" fill="#ffffff"/>
</g>
</g>
</svg>
